<?xml version="1.0" standalone="no"?>
<!DOCTYPE svg PUBLIC "-//W3C//DTD SVG 20010904//EN"
 "http://www.w3.org/TR/2001/REC-SVG-20010904/DTD/svg10.dtd">
<svg version="1.0" xmlns="http://www.w3.org/2000/svg"
 width="256.000000pt" height="256.000000pt" viewBox="0 0 256.000000 256.000000"
 preserveAspectRatio="xMidYMid meet">
<metadata>
Created by potrace 1.14, written by Peter Selinger 2001-2017
</metadata>
<g transform="translate(0.000000,256.000000) scale(0.100000,-0.100000)"
fill="#000000" stroke="none">
<path d="M1176 2548 c-156 -12 -327 -58 -461 -125 -250 -125 -474 -352 -589
-597 -42 -91 -93 -245 -102 -312 -3 -27 -9 -69 -13 -94 -12 -74 -5 -268 13
-368 58 -327 252 -628 529 -820 214 -148 455 -224 717 -224 69 -1 143 2 165 6
22 3 56 9 75 12 232 40 481 170 659 345 145 143 244 300 311 492 30 88 32 95
55 217 15 87 18 302 4 375 -24 127 -33 165 -57 235 -65 195 -192 388 -353 535
-253 231 -604 350 -953 323z m91 -250 c4 -7 8 -183 9 -391 0 -211 5 -382 10
-387 5 -5 99 -10 210 -11 119 -1 220 -7 249 -15 81 -20 108 -75 80 -165 -10
-32 -74 -177 -141 -317 -30 -62 -54 -115 -54 -117 0 -2 -23 -52 -51 -112 -55
-117 -93 -199 -129 -278 -63 -141 -111 -233 -129 -249 -40 -36 -44 -1 -45 401
-1 321 -3 375 -16 383 -8 5 -96 10 -195 11 -219 1 -261 5 -302 30 -80 50 -65
108 155 569 19 41 45 98 57 125 72 162 230 493 244 512 18 25 36 29 48 11z"/>
</g>
</svg>
